<svg width="24" height="24" viewBox="0 0 24 24" fill="none" xmlns="http://www.w3.org/2000/svg">
<rect width="24" height="24" rx="12" fill="black"/>
<path d="M11.9948 6.16504C8.74338 6.1637 6.10986 8.84495 6.10986 12.1543C6.10986 14.7713 7.75729 16.9958 10.0516 17.8128C10.3606 17.8918 10.3132 17.6682 10.3132 17.5155V16.4775C8.52907 16.6905 8.45676 15.4878 8.33711 15.2869C8.09519 14.8664 7.52326 14.7592 7.69418 14.5583C8.10045 14.3454 8.51461 14.6119 8.99451 15.3338C9.34161 15.8574 10.0187 15.7691 10.3619 15.682C10.4368 15.3673 10.5972 15.086 10.8181 14.8677C8.96952 14.5302 8.19906 13.3811 8.19906 12.015C8.19906 11.3521 8.41337 10.7427 8.8341 10.2512C8.56588 9.44093 8.85908 8.74718 8.89853 8.64406C9.66242 8.57441 10.4565 9.2012 10.5183 9.25075C10.9522 9.13156 11.4479 9.06861 12.0027 9.06861C12.5602 9.06861 13.0572 9.13424 13.495 9.25477C13.6436 9.13959 14.3799 8.6012 15.0899 8.66682C15.128 8.76995 15.4146 9.44763 15.1622 10.2472C15.5882 10.74 15.8051 11.3548 15.8051 12.0191C15.8051 13.3878 15.0294 14.5383 13.1755 14.8704C13.3343 15.0295 13.4604 15.2192 13.5464 15.4284C13.6324 15.6377 13.6766 15.8623 13.6765 16.0891V17.5958C13.687 17.7164 13.6765 17.8356 13.8737 17.8356C16.2022 17.036 17.8785 14.7954 17.8785 12.1557C17.8785 8.84495 15.2437 6.16504 11.9948 6.16504V6.16504Z" fill="white"/>
</svg>
