<svg width="24" height="24" viewBox="0 0 24 24" fill="none" xmlns="http://www.w3.org/2000/svg">
<rect width="24" height="24" rx="12" fill="black"/>
<path fill-rule="evenodd" clip-rule="evenodd" d="M10.5576 10.2674H12.6411V11.3246C12.9412 10.7166 13.7109 10.1703 14.867 10.1703C17.0835 10.1703 17.6096 11.3806 17.6096 13.6012V17.7137H15.3657V14.1069C15.3657 12.8423 15.0656 12.1292 14.3016 12.1292C13.2419 12.1292 12.8015 12.8977 12.8015 14.1063V17.7137H10.5576V10.2674V10.2674ZM6.70989 17.6166H8.9538V10.1703H6.70989V17.6166V17.6166ZM9.27523 7.7423C9.27532 7.93388 9.23802 8.12358 9.1655 8.30035C9.09298 8.47712 8.9867 8.63745 8.85282 8.77201C8.58153 9.04666 8.21432 9.20039 7.83184 9.19944C7.45004 9.19918 7.08368 9.04584 6.81199 8.77259C6.6786 8.63756 6.57267 8.47706 6.50028 8.30026C6.42789 8.12346 6.39046 7.93386 6.39014 7.7423C6.39014 7.35544 6.5416 6.98516 6.81255 6.71201C7.084 6.43839 7.45052 6.28499 7.83241 6.28516C8.21499 6.28516 8.58187 6.43887 8.85282 6.71201C9.12321 6.98516 9.27523 7.35544 9.27523 7.7423Z" fill="white"/>
</svg>
