<svg width="76" height="76" viewBox="0 0 76 76" fill="none" xmlns="http://www.w3.org/2000/svg">
<path d="M0 2.40316C0 1.07593 1.07593 0 2.40316 0H73.5968C74.9241 0 76 1.07593 76 2.40316V73.3024C76 74.6297 74.9241 75.7056 73.5968 75.7056H2.40316C1.07593 75.7056 0 74.6297 0 73.3024V2.40316Z" fill="#598CD9"/>
<path d="M42.0001 10.9574L47.2534 16.1903" stroke="black" stroke-width="1.81942"/>
<path d="M54.9999 40.2982L59.311 38.4652" stroke="black" stroke-width="1.14794"/>
<path d="M42.2667 24.5462L47.52 19.3132" stroke="black" stroke-width="1.81942"/>
<path d="M63.0496 43.3385L61.2095 39.0441" stroke="black" stroke-width="1.14794"/>
<path d="M54.7333 10.9574L49.48 16.1903" stroke="black" stroke-width="1.81942"/>
<path d="M57.9943 32.8722L59.8345 37.1666" stroke="black" stroke-width="1.14794"/>
<path d="M54.9999 24.5462L49.7466 19.3132" stroke="black" stroke-width="1.81942"/>
<path d="M66.044 35.9126L61.7329 37.7456" stroke="black" stroke-width="1.14794"/>
<path d="M31.5496 10.9574C31.5496 10.9574 24.8524 26.8126 31.4574 40.646C38.0623 54.4794 55.4683 61.0525 55.4683 61.0525C38.0438 69.3078 18.5641 64.7858 11.9591 50.9524C5.35417 37.1191 14.1251 19.2127 31.5496 10.9574Z" fill="black"/>
</svg>
