<svg width="76" height="76" viewBox="0 0 76 76" fill="none" xmlns="http://www.w3.org/2000/svg">
<path d="M0 2.40316C0 1.07593 1.07593 0 2.40316 0H73.5968C74.9241 0 76 1.07593 76 2.40316V73.5968C76 74.9241 74.9241 76 73.5968 76H2.40316C1.07593 76 0 74.9241 0 73.5968V2.40316Z" fill="#598CD9"/>
<path fill-rule="evenodd" clip-rule="evenodd" d="M39.2283 7V21.898H35.5798V7H39.2283ZM49.5657 37.4041C49.5657 44.1208 44.1208 49.5657 37.4041 49.5657C30.6874 49.5657 25.2424 44.1208 25.2424 37.4041C25.2424 30.6874 30.6874 25.2424 37.4041 25.2424C44.1208 25.2424 49.5657 30.6874 49.5657 37.4041ZM35.2853 54.164V69.062H38.9338V54.164H35.2853ZM54.4879 11.5804L46.8774 24.3878L43.7409 22.524L51.3514 9.71659L54.4879 11.5804ZM68.1122 35.5798H53.2142V39.2283H68.1122V35.5798ZM7 35.5798H21.898V39.2283H7V35.5798ZM27.6362 51.6742L20.0257 64.4816L23.1622 66.3454L30.7727 53.538L27.6362 51.6742ZM20.0257 11.5804L27.6362 24.3878L30.7727 22.524L23.1622 9.71659L20.0257 11.5804ZM22.4321 31.4986L9.70102 23.7609L11.596 20.6431L24.327 28.3808L22.4321 31.4986ZM65.0685 23.7609L52.3375 31.4986L50.4426 28.3808L63.1736 20.6431L65.0685 23.7609ZM52.3375 43.7502L65.0685 51.4878L63.1736 54.6056L50.4426 46.868L52.3375 43.7502ZM9.70102 51.4878L22.4321 43.7502L24.327 46.868L11.596 54.6056L9.70102 51.4878ZM46.8774 51.6742L54.4879 64.4816L51.3514 66.3454L43.7409 53.538L46.8774 51.6742Z" fill="black"/>
</svg>
