<svg width="70" height="70" viewBox="0 0 70 70" fill="none" xmlns="http://www.w3.org/2000/svg">
<rect width="69.4529" height="69.4529" rx="34.7265" fill="#9BC9FF"/>
<g clip-path="url(#clip0_1400_3)">
<path fill-rule="evenodd" clip-rule="evenodd" d="M43.6824 38.6655C43.1896 38.4192 40.7737 37.2318 40.3239 37.0665C39.8741 36.9028 39.5467 36.8217 39.2176 37.3145C38.8902 37.804 37.9493 38.9119 37.6632 39.2394C37.3754 39.5684 37.0894 39.6081 36.5982 39.3634C36.1071 39.1153 34.5229 38.5977 32.646 36.9243C31.1859 35.6212 30.1986 34.0122 29.9126 33.5194C29.6265 33.0283 29.8811 32.762 30.1275 32.5173C30.3491 32.2974 30.6187 31.9435 30.8651 31.6574C31.1115 31.3697 31.1925 31.1646 31.3562 30.8356C31.5216 30.5081 31.4389 30.2221 31.3149 29.9757C31.1925 29.7293 30.2102 27.31 29.8001 26.3261C29.4016 25.3686 28.9964 25.4993 28.6955 25.4827C28.4078 25.4695 28.0803 25.4662 27.7529 25.4662C27.4255 25.4662 26.893 25.5886 26.4432 26.0813C25.9918 26.5725 24.7234 27.7614 24.7234 30.1807C24.7234 32.5983 26.4829 34.9349 26.7293 35.264C26.9757 35.5914 30.1937 40.5557 35.1232 42.6839C36.2973 43.1899 37.2117 43.4925 37.9245 43.7174C39.1018 44.0928 40.1734 44.0399 41.0201 43.9125C41.9626 43.772 43.9272 42.7236 44.3373 41.5759C44.7457 40.4283 44.7457 39.4444 44.6234 39.2394C44.501 39.0343 44.1736 38.9119 43.6808 38.6655H43.6824ZM34.7164 50.9074H34.7098C31.7819 50.908 28.9078 50.1209 26.3887 48.6287L25.7933 48.2749L19.6054 49.8987L21.2574 43.8662L20.8688 43.2478C19.2319 40.6422 18.3657 37.6267 18.3702 34.5496C18.3735 25.5373 25.7057 18.205 34.723 18.205C39.0886 18.205 43.193 19.9083 46.2786 22.9973C47.8006 24.513 49.0069 26.3154 49.8278 28.3004C50.6487 30.2853 51.0678 32.4133 51.061 34.5612C51.0577 43.5735 43.7254 50.9074 34.7164 50.9074V50.9074ZM48.6268 20.6508C46.8048 18.8168 44.637 17.3626 42.2489 16.3725C39.8608 15.3824 37.2999 14.8761 34.7147 14.8829C23.8768 14.8829 15.0529 23.7051 15.0496 34.548C15.0446 37.9987 15.9498 41.3897 17.674 44.3789L14.8843 54.5703L25.3088 51.8351C28.1926 53.4063 31.4241 54.2295 34.7081 54.2296H34.7164C45.5544 54.2296 54.3782 45.4074 54.3815 34.5629C54.3895 31.9787 53.885 29.4185 52.8972 27.0306C51.9095 24.6426 50.458 22.4742 48.6268 20.6508" fill="black"/>
</g>
<defs>
<clipPath id="clip0_1400_3">
<rect width="39.6874" height="39.6874" fill="white" transform="translate(14.8843 14.8828)"/>
</clipPath>
</defs>
</svg>